<?xml version="1.0" encoding="UTF-8" standalone="no"?>
<!-- Created with Inkscape (http://www.inkscape.org/) -->

<svg
   width="16"
   height="16"
   viewBox="0 0 4.2333333 4.2333333"
   version="1.1"
   id="svg1"
   xmlns="http://www.w3.org/2000/svg"
   xmlns:svg="http://www.w3.org/2000/svg">
  <defs
     id="defs1" />
  <g
     id="layer1">
    <path
       style="font-size:4.18586px;font-family:Workbench;-inkscape-font-specification:Workbench;letter-spacing:-0.261616px;fill:#ffffff;stroke-width:0.353051"
       d="m 2.8943797,0.79374822 h 0.2975859 q 0.086143,0 0.1409618,-0.0793749 0.058734,-0.0793749 0.058734,-0.18520812 0,-0.10583324 -0.058734,-0.18520812 -0.054819,-0.0793749 -0.1409618,-0.0793749 H 2.8943797 q -0.086144,0 -0.1448774,0.0793749 -0.054819,0.0793749 -0.054819,0.18520812 0,0.10583323 0.054819,0.18520812 0.058734,0.0793749 0.1448774,0.0793749 z"
       id="path17" />
    <path
       style="font-size:4.18586px;font-family:Workbench;-inkscape-font-specification:Workbench;letter-spacing:-0.261616px;fill:#ffffff;stroke-width:0.353051"
       d="m 3.2428683,1.5874982 h 0.2975859 q 0.086144,0 0.1409619,-0.079375 0.058734,-0.079375 0.058734,-0.1852087 0,-0.1058331 -0.058734,-0.1852085 Q 3.6265971,1.058331 3.5404542,1.058331 H 3.2428683 q -0.086144,0 -0.1448774,0.079375 -0.054818,0.079375 -0.054818,0.1852085 0,0.1058332 0.054818,0.1852088 0.058734,0.079375 0.1448774,0.079375 z"
       id="path16" />
    <path
       style="font-size:4.18586px;font-family:Workbench;-inkscape-font-specification:Workbench;letter-spacing:-0.261616px;fill:#ffffff;stroke-width:0.353051"
       d="m 3.471468,2.381249 h 0.297586 q 0.086144,0 0.1409618,-0.079374 0.058734,-0.079375 0.058734,-0.1852084 0,-0.1058329 -0.058734,-0.1852083 Q 3.8551968,1.8520823 3.769054,1.8520823 H 3.471468 q -0.086144,0 -0.1448773,0.079374 -0.054818,0.079374 -0.054818,0.1852083 0,0.1058329 0.054818,0.1852084 0.058734,0.079374 0.1448773,0.079376 z"
       id="path14" />
    <path
       style="font-size:4.18586px;font-family:Workbench;-inkscape-font-specification:Workbench;letter-spacing:-0.261616px;fill:#ffffff;stroke-width:0.353051"
       d="m 3.2428688,3.1749977 h 0.2975859 q 0.086144,0 0.1409618,-0.079374 0.058734,-0.079374 0.058734,-0.1852084 0,-0.105833 -0.058734,-0.1852085 -0.054818,-0.079375 -0.1409618,-0.079375 H 3.2428688 q -0.086144,0 -0.1448774,0.079375 -0.054819,0.079374 -0.054819,0.1852085 0,0.105833 0.054819,0.1852084 0.058734,0.079374 0.1448774,0.079374 z"
       id="path13" />
    <path
       style="font-size:4.18586px;font-family:Workbench;-inkscape-font-specification:Workbench;letter-spacing:-0.261616px;fill:#ffffff;stroke-width:0.353051"
       d="m 2.8943797,3.9687477 h 0.2975859 q 0.086143,0 0.1409618,-0.079375 0.058734,-0.079375 0.058734,-0.1852085 0,-0.1058333 -0.058734,-0.1852086 -0.054819,-0.079375 -0.1409618,-0.079375 H 2.8943797 q -0.086144,0 -0.1448774,0.079375 -0.054819,0.079375 -0.054819,0.1852086 0,0.1058333 0.054819,0.1852085 0.058734,0.079375 0.1448774,0.079375 z"
       id="path11" />
    <path
       style="font-size:4.18586px;font-family:Workbench;-inkscape-font-specification:Workbench;letter-spacing:-0.261616px;fill:#ffffff;stroke-width:0.38822"
       d="m 1.0498561,0.79374996 h 0.8806268 q 0.1325676,0 0.2083205,-0.0793749 0.075753,-0.0793749 0.075753,-0.18520812 0,-0.10583323 -0.075753,-0.18520811 Q 2.0630505,0.2645839 1.9304829,0.2645839 H 1.0498561 q -0.13256755,0 -0.2083204,0.0793749 -0.0757529,0.0793749 -0.0757529,0.18520811 0,0.10583324 0.0757529,0.18520812 0.0757529,0.0793749 0.2083204,0.0793749 z"
       id="path10" />
    <path
       style="font-size:4.18586px;font-family:Workbench;-inkscape-font-specification:Workbench;letter-spacing:-0.261616px;fill:#ffffff;stroke-width:0.353051"
       d="M 0.71487998,1.5874999 H 1.0124659 q 0.086144,0 0.1409619,-0.079374 0.058734,-0.079376 0.058734,-0.1852085 0,-0.1058341 -0.058734,-0.1852084 Q 1.0986088,1.058334 1.0124659,1.058334 H 0.71487998 q -0.0861433,0 -0.14487738,0.079375 -0.0548185,0.079375 -0.0548185,0.1852084 0,0.105833 0.0548185,0.1852085 0.0587341,0.079374 0.14487738,0.079374 z"
       id="path8" />
    <path
       style="font-size:4.18586px;font-family:Workbench;-inkscape-font-specification:Workbench;letter-spacing:-0.261616px;fill:#ffffff;stroke-width:0.353051"
       d="m 1.7251978,2.3812499 h 0.5481847 q 0.086143,0 0.1409618,-0.079374 0.058734,-0.079374 0.058734,-0.1852082 0,-0.1058329 -0.058734,-0.1852082 -0.054819,-0.079376 -0.1409618,-0.079376 H 1.7251978 q -0.086144,0 -0.1448774,0.079374 -0.054819,0.079374 -0.054819,0.1852081 0,0.1058329 0.054819,0.1852083 0.058734,0.079374 0.1448774,0.079376 z"
       id="path6" />
    <path
       style="font-size:4.18586px;font-family:Workbench;-inkscape-font-specification:Workbench;letter-spacing:-0.261616px;fill:#ffffff;stroke-width:0.353051"
       d="m 0.46428127,2.3812499 h 0.29758596 q 0.0861433,0 0.14096178,-0.079374 0.0587341,-0.079375 0.0587341,-0.1852085 0,-0.1058331 -0.0587341,-0.1852086 Q 0.8480105,1.8520835 0.76186723,1.8520835 H 0.46428127 q -0.0861433,0 -0.14096178,0.079374 -0.0587341,0.079374 -0.0587341,0.1852085 0,0.1058331 0.0587341,0.1852086 0.0548185,0.079374 0.14096178,0.079375 z"
       id="path5" />
    <path
       style="font-size:4.18586px;font-family:Workbench;-inkscape-font-specification:Workbench;letter-spacing:-0.261616px;fill:#ffffff;stroke-width:0.353051"
       d="m 1.9757965,3.1749998 h 0.297586 q 0.086143,0 0.1409618,-0.079375 0.058734,-0.079375 0.058734,-0.1852082 0,-0.105833 -0.058734,-0.1852083 -0.054819,-0.079375 -0.1409618,-0.079375 h -0.297586 q -0.086143,0 -0.1448774,0.079375 -0.054818,0.079375 -0.054818,0.1852083 0,0.1058331 0.054818,0.1852082 0.058734,0.079375 0.1448774,0.079375 z"
       id="path2" />
    <path
       style="font-size:4.18586px;font-family:Workbench;-inkscape-font-specification:Workbench;letter-spacing:-0.261616px;fill:#ffffff;stroke-width:0.353051"
       d="M 0.71487998,3.1749998 H 1.0124659 q 0.086144,0 0.1409619,-0.079375 0.058734,-0.079375 0.058734,-0.1852084 0,-0.1058324 -0.058734,-0.1852084 Q 1.0986088,2.645833 1.0124659,2.645833 H 0.71487998 q -0.0861433,0 -0.14487738,0.079375 -0.0548185,0.079375 -0.0548185,0.1852084 0,0.1058324 0.0548185,0.1852084 0.0587341,0.079375 0.14487738,0.079375 z"
       id="path1" />
    <path
       style="font-size:4.18586px;font-family:Workbench;-inkscape-font-specification:Workbench;letter-spacing:-0.261616px;fill:#ffffff;stroke-width:0.383258"
       d="m 1.0426416,3.9687494 h 1.1535778 q 0.1292007,0 0.2030295,-0.079375 0.073829,-0.079375 0.073829,-0.1852085 0,-0.1058334 -0.073829,-0.1852085 -0.073829,-0.079375 -0.2030295,-0.079375 H 1.0426416 q -0.12920079,0 -0.20302977,0.079375 -0.073829,0.079375 -0.073829,0.1852085 0,0.1058334 0.073829,0.1852085 0.073829,0.079375 0.20302977,0.079375 z"
       id="text1" />
  </g>
</svg>
